# xmcd
#
# Track frame offsets: 
#        150
#        28472
#        56600
#        75685
#        95550
#        112057
#        129757
#        145312
#        159492
#
# Disc length: 2566 seconds
#
# Revision: 1
# Processed by: cddbd v1.5.2PL0 Copyright (c) Steve Scherf et al.
# Submitted via: ExactAudioCopy v0.99pb4
#
DISCID=790a0409
DTITLE=Abdullah Ibrahim (Dollar Brand) - Duke's Memories
DYEAR=1900
DGENRE=Jazz
TTITLE0=Star Crossed Lovers
TTITLE1=Water Edge
TTITLE2=Virgin Jungle
TTITLE3=Way Way Back
TTITLE4=The Wedding
TTITLE5=Black And Brown Cherries
TTITLE6=For Coltrane
TTITLE7=In A Sentimental Mood
TTITLE8=Angelica/Purple Gazelle
EXTD=
EXTT0=
EXTT1=
EXTT2=
EXTT3=
EXTT4=
EXTT5=
EXTT6=
EXTT7=
EXTT8=
PLAYORDER=
